<?xml version="1.0" standalone="no"?>
<!-- Generator: Adobe Fireworks 10, Export SVG Extension by Aaron Beall (http://fireworks.abeall.com) . Version: 0.6.1  -->
<!DOCTYPE svg PUBLIC "-//W3C//DTD SVG 1.1//EN" "http://www.w3.org/Graphics/SVG/1.1/DTD/svg11.dtd">
<svg id="Nutritionix%20Logo%20Transparen_vector.fw-Page%201" viewBox="0 0 1000 219" style="background-color:#ffffff00" version="1.1"
	xmlns="http://www.w3.org/2000/svg" xmlns:xlink="http://www.w3.org/1999/xlink" xml:space="preserve"
	x="0px" y="0px" height="219px"
>
	<g id="Background">
		<path d="M 43.9063 11.4193 C 57.0313 12.3579 76.4063 14.5479 84.5313 33.0064 C 85.4688 35.1964 86.4063 38.325 86.7188 41.1407 C 87.0313 43.9564 87.3438 47.085 87.0313 49.9007 L 87.3438 52.7164 C 92.0313 38.325 101.4063 32.3807 111.7188 32.3807 C 117.0313 32.3807 121.7188 33.3193 127.3438 35.8221 C 122.3438 51.1521 112.9688 60.8507 100.4688 60.8507 C 99.5313 60.8507 95.4688 60.225 92.9688 59.9121 C 94.5313 53.0293 103.5938 39.2636 112.6563 37.6993 C 113.9063 37.3864 115.4688 37.0736 116.7188 36.7607 C 117.6563 36.7607 118.5938 36.7607 119.5313 36.4479 C 118.5938 35.8221 117.0313 35.8221 116.0938 35.8221 C 106.0938 35.8221 94.2188 43.3307 86.4063 55.2193 C 83.5938 43.0179 76.0938 24.2464 59.5313 17.9893 C 56.4063 16.7379 53.2813 16.425 50.1563 15.7993 C 50.1563 15.7993 49.8438 15.7993 49.5313 16.1121 C 67.3438 22.6821 77.3438 43.3307 77.3438 57.4093 L 77.3438 59.2864 L 73.2813 59.2864 C 72.0313 58.9736 70.7813 58.3479 69.5313 58.3479 C 60.1563 58.035 44.8438 43.9564 42.9688 34.2579 C 42.9688 32.6936 42.3438 31.1293 41.7188 29.8779 C 41.4063 28.3136 41.0938 26.7493 40.7813 25.185 C 40.7813 23.3079 40.1563 20.1793 40.1563 19.5536 L 40.1563 11.4193 L 43.9063 11.4193 ZM 147.0313 84.315 C 147.9688 84.9407 148.5938 86.505 149.2188 87.7564 C 150.4688 90.2593 151.7188 92.7621 152.9688 95.265 C 156.7188 104.025 159.2188 112.4721 160.4688 121.545 C 161.0938 126.2379 161.7188 135.6236 161.7188 136.5621 C 161.7188 152.5179 157.3438 173.1664 147.3438 187.8707 C 146.4063 189.435 144.2188 190.3736 142.6563 191.3121 C 139.5313 193.1893 136.0938 195.0664 132.9688 196.6307 C 122.3438 201.6364 111.0938 204.765 100.4688 206.3293 C 94.8438 207.2679 84.2188 207.5807 83.5938 207.5807 C 59.2188 207.5807 35.1563 201.0107 19.2188 187.5579 C 17.6563 185.9936 16.7188 183.4907 15.7813 181.3007 C 13.5938 176.6079 11.7188 171.915 10.1563 167.2221 C 8.9063 162.8421 5.7813 150.3279 5.7813 144.0707 L 5.7813 129.0536 C 6.7188 114.3493 9.5313 98.7064 19.5313 84.9407 C 22.0313 81.1864 27.3438 79.6221 31.4063 77.4321 C 42.0313 71.4879 54.5313 68.0464 65.4688 66.4821 C 71.0938 65.5436 82.9688 65.2307 83.5938 65.2307 C 104.5313 65.2307 126.4063 70.2364 147.0313 84.315 ZM 116.4063 78.3707 C 121.7188 79.6221 127.3438 81.4993 132.6563 83.6893 C 134.8438 84.6279 137.6563 85.2536 139.5313 87.1307 C 140.7813 88.3821 141.4063 91.1979 142.0313 93.075 C 143.9063 97.7679 145.4688 103.3993 146.7188 108.7179 C 136.7188 107.4664 115.7813 104.025 103.9063 104.025 L 62.9688 104.025 C 49.2188 104.6507 35.4688 106.215 20.4688 108.7179 C 22.0313 101.835 22.3438 93.3879 27.3438 87.4436 C 30.1563 83.6893 36.0938 83.0636 40.4688 81.4993 C 47.0313 78.9964 54.5313 77.745 61.7188 76.1807 C 68.2813 74.6164 76.7188 74.6164 83.5938 74.6164 C 94.8438 74.6164 104.5313 75.2421 116.4063 78.3707 ZM 52.3438 125.925 C 52.3438 132.495 47.3438 136.5621 41.7188 136.5621 C 34.8438 136.5621 31.0938 131.5564 31.0938 125.925 C 31.0938 120.2936 34.8438 114.975 41.7188 114.975 C 48.2813 114.975 52.3438 120.2936 52.3438 125.925 ZM 80.4688 125.925 C 80.4688 132.495 74.8438 136.5621 69.5313 136.5621 C 63.5938 136.5621 58.9063 131.5564 58.9063 125.925 C 58.9063 120.2936 63.5938 114.975 69.5313 114.975 C 76.0938 114.975 80.4688 120.2936 80.4688 125.925 ZM 108.2813 125.925 C 108.2813 132.495 103.2813 136.5621 97.6563 136.5621 C 90.7813 136.5621 87.0313 131.5564 87.0313 125.6121 C 87.0313 119.6679 91.7188 114.975 97.6563 114.975 C 104.2188 114.975 108.2813 120.2936 108.2813 125.925 ZM 136.4063 125.925 C 136.4063 132.495 130.7813 136.5621 125.4688 136.5621 C 119.5313 136.5621 114.8438 131.5564 114.8438 125.925 C 114.8438 119.6679 119.5313 114.975 125.4688 114.975 C 131.4063 114.975 136.4063 120.2936 136.4063 125.925 ZM 52.3438 151.2664 C 52.3438 157.8364 47.3438 161.9036 41.7188 161.9036 C 34.8438 161.9036 31.0938 156.8979 31.0938 151.2664 C 31.0938 145.635 34.8438 140.3164 41.7188 140.3164 C 48.2813 140.3164 52.3438 145.635 52.3438 151.2664 ZM 80.4688 151.2664 C 80.4688 157.8364 74.8438 161.9036 69.5313 161.9036 C 63.5938 161.9036 58.9063 156.8979 58.9063 151.2664 C 58.9063 145.635 63.5938 140.3164 69.5313 140.3164 C 76.0938 140.3164 80.4688 145.635 80.4688 151.2664 ZM 108.2813 151.2664 C 108.2813 157.8364 103.2813 161.9036 97.6563 161.9036 C 90.7813 161.9036 87.0313 156.8979 87.0313 150.9536 C 87.0313 145.0093 91.7188 140.3164 97.6563 140.3164 C 104.2188 140.3164 108.2813 145.635 108.2813 151.2664 ZM 136.4063 151.2664 C 136.4063 157.8364 130.7813 161.9036 125.4688 161.9036 C 119.5313 161.9036 114.8438 156.8979 114.8438 151.2664 C 114.8438 145.0093 119.5313 140.3164 125.4688 140.3164 C 131.4063 140.3164 136.4063 145.635 136.4063 151.2664 ZM 52.3438 178.1721 C 52.3438 184.7421 47.3438 188.8093 41.7188 188.8093 C 34.8438 188.8093 31.0938 183.8036 31.0938 178.1721 C 31.0938 172.2279 34.8438 167.535 41.7188 167.535 C 48.2813 167.535 52.3438 172.2279 52.3438 178.1721 ZM 80.4688 178.1721 C 80.4688 183.8036 75.4688 188.8093 69.8438 188.8093 C 63.5938 188.8093 58.9063 183.8036 58.9063 178.1721 C 58.9063 172.2279 63.5938 167.535 69.5313 167.535 C 75.7813 167.535 80.4688 172.2279 80.4688 178.1721 ZM 108.2813 178.1721 C 108.2813 184.7421 103.2813 188.8093 97.6563 188.8093 C 90.7813 188.8093 87.0313 183.8036 87.0313 178.1721 C 87.0313 172.2279 90.7813 167.535 97.6563 167.535 C 104.2188 167.535 108.2813 172.2279 108.2813 178.1721 ZM 136.4063 178.1721 C 136.4063 184.7421 130.7813 188.8093 125.4688 188.8093 C 119.5313 188.8093 114.8438 183.8036 114.8438 178.1721 C 114.8438 171.6021 119.5313 167.535 125.4688 167.535 C 131.4063 167.535 136.4063 172.2279 136.4063 178.1721 Z" fill="#6ab316"/>
		<path d="M 888.5938 53.3421 L 888.5938 74.9293 L 862.3438 74.9293 L 862.3438 53.3421 L 888.5938 53.3421 ZM 888.5938 89.3207 L 888.5938 183.4907 L 862.3438 183.4907 L 862.3438 89.3207 L 888.5938 89.3207 ZM 928.9063 89.9464 L 945.1563 113.0979 L 961.4063 89.9464 L 990.1563 89.9464 L 959.8438 133.7464 L 993.9063 183.4907 L 965.4688 183.4907 L 945.4688 155.0207 L 925.1563 183.4907 L 896.4063 183.4907 L 930.7813 133.7464 L 900.1563 89.9464 L 928.9063 89.9464 Z" fill="#6ab316"/>
		<path d="M 542.0313 53.3421 L 542.0313 74.9293 L 515.7813 74.9293 L 515.7813 53.3421 L 542.0313 53.3421 ZM 645.4688 53.3421 L 645.4688 74.9293 L 619.2188 74.9293 L 619.2188 53.3421 L 645.4688 53.3421 ZM 420.1563 59.9121 L 420.1563 87.4436 L 438.9063 87.4436 L 438.9063 105.9021 L 420.1563 105.9021 L 420.1563 151.2664 C 420.4688 160.6521 424.5313 163.155 431.0938 163.155 C 434.2188 163.155 431.4063 161.5907 439.5313 162.8421 L 439.5313 182.2393 L 423.5938 183.4907 C 403.9063 182.865 394.5313 175.6693 394.5313 159.4007 L 394.5313 105.9021 L 379.2188 105.9021 L 379.2188 87.4436 L 395.1563 87.4436 L 395.1563 59.9121 L 420.1563 59.9121 ZM 591.0938 59.9121 L 591.0938 87.4436 L 609.8438 87.4436 L 609.8438 105.9021 L 591.0938 105.9021 L 591.0938 153.1436 C 591.4063 154.395 591.0938 155.6464 591.4063 156.585 C 591.7188 157.5236 592.6563 160.3393 594.5313 161.2779 C 595.4688 161.9036 600.7813 163.155 602.0313 163.155 C 605.1563 163.155 602.3438 161.5907 610.4688 162.8421 L 610.4688 182.2393 L 594.2188 183.4907 C 577.0313 183.8036 565.4688 176.295 565.4688 160.965 L 565.4688 105.9021 L 550.1563 105.9021 L 550.1563 87.4436 L 566.0938 87.4436 L 566.0938 59.9121 L 591.0938 59.9121 ZM 751.7188 120.9193 C 752.6563 124.9864 752.9688 129.9921 752.9688 134.685 C 752.9688 165.345 731.0938 183.4907 705.4688 183.4907 C 674.5313 183.4907 655.4688 163.155 655.4688 133.4336 C 655.4688 128.4279 656.4063 122.7964 657.6563 118.1036 C 664.2188 92.7621 687.0313 84.315 704.5313 84.315 C 723.5938 84.315 745.1563 93.7007 751.7188 120.9193 ZM 267.9688 104.6507 C 268.5938 106.8407 271.0938 114.975 271.0938 118.1036 L 271.0938 183.4907 L 245.1563 183.4907 L 245.1563 130.305 C 244.8438 113.0979 241.4063 107.1536 227.6563 107.1536 C 211.4063 107.1536 208.5938 120.6064 208.5938 131.5564 L 208.5938 183.4907 L 182.9688 183.4907 L 182.9688 89.0079 L 207.6563 89.0079 L 207.9688 101.835 C 216.7188 89.9464 228.5938 86.505 238.5938 86.505 C 248.2813 86.505 264.5313 90.5721 267.9688 104.6507 ZM 309.2188 86.505 L 309.5313 139.6907 C 309.8438 159.0879 314.5313 162.8421 327.0313 162.8421 C 340.7813 162.8421 345.1563 154.7079 346.0938 137.8136 L 346.0938 86.505 L 371.7188 86.505 L 371.7188 180.9879 L 346.7188 180.9879 L 346.7188 168.1607 C 337.6563 180.3621 325.7813 183.4907 315.7813 183.4907 C 290.7813 183.4907 283.2813 166.5964 283.2813 146.2607 L 283.2813 86.505 L 309.2188 86.505 ZM 508.9063 88.0693 L 508.9063 110.595 L 507.6563 110.9079 C 504.8438 110.9079 500.4688 110.595 499.8438 110.595 C 487.3438 110.595 476.4063 115.9136 474.2188 134.3721 L 474.5313 179.4236 C 474.5313 180.0493 474.5313 182.5521 473.2813 183.4907 L 448.9063 183.4907 C 448.5938 183.1779 448.2813 182.865 447.9688 182.5521 L 447.9688 89.0079 L 472.6563 89.0079 L 472.9688 105.9021 C 479.2188 93.075 493.2813 86.505 502.9688 86.505 C 505.1563 86.505 506.7188 86.505 508.9063 88.0693 ZM 847.3438 104.025 C 848.2813 108.0921 850.7813 114.3493 850.7813 119.0421 L 850.7813 183.4907 L 824.5313 183.4907 L 824.5313 125.925 C 823.2813 109.9693 818.2813 107.1536 807.0313 107.1536 C 803.5938 107.1536 802.3438 107.1536 798.5938 108.405 C 791.0938 110.595 788.2813 124.6736 788.2813 129.9921 L 788.2813 183.4907 L 762.6563 183.4907 L 762.6563 89.0079 L 787.0313 89.0079 L 787.3438 101.835 C 787.9688 101.5221 788.5938 100.8964 788.9063 100.2707 C 796.7188 89.6336 808.9063 86.505 818.2813 86.505 C 827.9688 86.505 843.5938 90.2593 847.3438 104.025 ZM 542.0313 89.3207 L 542.0313 183.4907 L 515.7813 183.4907 L 515.7813 89.3207 L 542.0313 89.3207 ZM 645.4688 89.3207 L 645.4688 183.4907 L 619.2188 183.4907 L 619.2188 89.3207 L 645.4688 89.3207 ZM 727.0313 134.685 C 727.0313 147.5121 722.3438 163.7807 704.8438 163.7807 C 696.0938 163.7807 686.4063 159.7136 682.9688 146.5736 C 682.6563 144.6964 682.0313 140.9421 682.0313 140.3164 L 682.0313 127.4893 C 682.9688 111.2207 692.9688 104.025 704.8438 104.025 C 723.9063 104.025 727.0313 122.7964 727.0313 134.685 Z" fill="#000000"/>
		<path d="M 138.9063 87.1307 C 140.7813 88.3821 140.7813 91.8236 141.7188 94.0136 C 143.2813 98.7064 144.8438 103.7121 146.0938 108.405 C 136.7188 107.1536 115.4688 103.7121 103.5938 103.7121 L 62.9688 103.7121 C 48.5938 104.3379 34.8438 105.9021 20.7813 108.405 L 20.7813 107.4664 C 22.6563 100.8964 23.5938 93.7007 27.3438 87.7564 C 28.2813 86.1921 30.7813 85.5664 32.3438 84.9407 C 36.0938 83.0636 40.7813 81.4993 45.1563 80.2479 C 47.3438 79.3093 50.4688 78.6836 53.2813 78.0579 C 62.6563 75.555 73.9063 74.9293 83.2813 74.9293 C 101.4063 74.9293 121.7188 77.4321 138.9063 87.1307 Z" fill="#ffffff"/>
		<path d="M 52.3438 125.6121 C 52.3438 132.1821 46.4063 136.2493 41.7188 136.2493 C 35.4688 136.2493 31.4063 131.2436 31.4063 125.6121 C 31.4063 119.9807 36.0938 115.2879 41.7188 115.2879 C 47.3438 115.2879 52.3438 120.9193 52.3438 125.6121 ZM 80.1563 125.925 C 80.1563 132.1821 75.1563 136.2493 69.5313 136.2493 C 63.2813 136.2493 59.2188 131.2436 59.2188 125.925 C 59.2188 119.9807 63.9063 115.2879 69.5313 115.2879 C 76.0938 115.2879 80.1563 120.9193 80.1563 125.925 ZM 107.9688 125.925 C 107.9688 132.1821 102.9688 136.2493 97.6563 136.2493 C 91.4063 136.2493 87.3438 131.2436 87.3438 125.925 C 87.3438 120.9193 91.4063 115.2879 97.6563 115.2879 C 103.9063 115.2879 107.9688 120.9193 107.9688 125.925 ZM 136.0938 125.925 C 136.0938 131.8693 130.7813 136.2493 125.4688 136.2493 C 118.9063 136.2493 115.1563 131.2436 115.1563 125.925 C 115.1563 119.9807 119.8438 115.2879 125.4688 115.2879 C 132.0313 115.2879 136.0938 120.9193 136.0938 125.925 ZM 52.3438 150.9536 C 52.3438 157.5236 46.4063 161.5907 41.7188 161.5907 C 35.4688 161.5907 31.4063 156.585 31.4063 150.9536 C 31.4063 145.3221 36.0938 140.6293 41.7188 140.6293 C 47.3438 140.6293 52.3438 146.2607 52.3438 150.9536 ZM 80.1563 151.2664 C 80.1563 157.5236 75.1563 161.5907 69.5313 161.5907 C 63.2813 161.5907 59.2188 156.585 59.2188 151.2664 C 59.2188 145.3221 63.9063 140.6293 69.5313 140.6293 C 76.0938 140.6293 80.1563 146.2607 80.1563 151.2664 ZM 107.9688 151.2664 C 107.9688 157.5236 102.9688 161.5907 97.6563 161.5907 C 91.4063 161.5907 87.3438 156.585 87.3438 151.2664 C 87.3438 146.2607 91.4063 140.6293 97.6563 140.6293 C 103.9063 140.6293 107.9688 146.2607 107.9688 151.2664 ZM 136.0938 151.2664 C 136.0938 157.2107 130.7813 161.5907 125.4688 161.5907 C 118.9063 161.5907 115.1563 156.585 115.1563 151.2664 C 115.1563 145.3221 119.8438 140.6293 125.4688 140.6293 C 132.0313 140.6293 136.0938 146.2607 136.0938 151.2664 ZM 52.3438 178.1721 C 52.3438 184.4293 46.7188 188.4964 41.7188 188.4964 C 35.4688 188.4964 31.4063 183.4907 31.4063 178.1721 C 31.4063 172.5407 35.4688 167.8479 41.7188 167.8479 C 47.3438 167.8479 52.3438 172.5407 52.3438 178.1721 ZM 80.1563 178.1721 C 80.1563 184.4293 75.1563 188.4964 69.5313 188.4964 C 62.9688 188.4964 59.2188 183.4907 59.2188 178.1721 C 59.2188 171.915 63.9063 167.8479 69.5313 167.8479 C 76.0938 167.8479 80.1563 172.5407 80.1563 178.1721 ZM 107.9688 178.1721 C 107.9688 184.4293 102.9688 188.4964 97.6563 188.4964 C 91.4063 188.4964 87.3438 183.4907 87.3438 178.1721 C 87.3438 172.5407 91.4063 167.8479 97.6563 167.8479 C 103.9063 167.8479 107.9688 172.5407 107.9688 178.1721 ZM 136.0938 178.1721 C 136.0938 184.4293 131.0938 188.4964 125.4688 188.4964 C 118.9063 188.4964 115.1563 183.4907 115.1563 178.1721 C 115.1563 171.915 119.8438 167.8479 125.4688 167.8479 C 132.0313 167.8479 136.0938 172.5407 136.0938 178.1721 Z" fill="#ffffff"/>
		<path d="M 726.7188 134.9979 C 726.7188 146.8864 722.3438 163.4678 704.8438 163.4678 C 695.7813 163.4678 687.0313 159.4007 683.2813 146.5736 C 682.9688 144.6964 682.3438 141.255 682.3438 140.6293 L 682.3438 127.4893 C 683.5938 111.8464 692.6563 104.3379 704.8438 104.3379 C 723.5938 104.3379 726.7188 123.1093 726.7188 134.9979 Z" fill="#ffffff"/>
	</g>
	<g id="Layer%201">
	</g>
</svg>