<svg viewBox="0 0 512 512"  xmlns="http://www.w3.org/2000/svg" xmlns:xlink="http://www.w3.org/1999/xlink">
  <defs>
    <linearGradient x1="50%" y1="0%" x2="50%" y2="100%" id="b">
      <stop stop-color="#FF58A7" offset="0%"/>
      <stop stop-color="#FF2010" offset="100%"/>
    </linearGradient>
    <path d="M174 0C117.333 0 99.2 0 74 9 43.435 19.2 19.2 43.435 9 74c-9 25.2-9 43.333-9 100v164c0 56.667 0 74.8 9 100 10.22 30.565 34.435 54.8 65 65 25.2 9 43.333 9 100 9h164c56.667 0 74.8 0 100-9 30.565-10.2 54.8-34.435 65-65 9-25.2 9-43.333 9-100V174c0-56.667 0-74.8-9-100-10.2-30.267-34.776-54.8-65-65-25.243-9-43.333-9-100-9H174Z" id="a"/>
  </defs>
  <g fill="none" fill-rule="evenodd">
    <mask id="c" fill="#fff">
      <use xlink:href="#a"/>
    </mask>
    <g transform="rotate(180 256 256)">
      <use fill="#FFF" xlink:href="#a"/>
      <path stroke="#D5D5D5" stroke-width="5" d="M174 2.5H341.113c-.002-5-.002-5-.011-5H338v5c57.722 0 70.152.617 87.864 5.32 3.651.969 7.353 2.129 11.296 3.535 29.549 9.972 53.528 33.94 63.47 63.443 1.409 3.943 2.56 7.608 3.524 11.222 4.726 17.728 5.346 30.168 5.346 87.98v164c0 57.812-.62 70.252-5.346 87.98-.964 3.614-2.115 7.279-3.508 11.18-9.969 29.868-33.618 53.517-63.437 63.469-3.95 1.41-7.615 2.56-11.23 3.525-17.727 4.726-30.167 5.346-87.979 5.346H174c-57.812 0-70.252-.62-87.98-5.346-3.614-.964-7.279-2.115-11.18-3.508-29.857-9.965-53.495-33.607-63.469-63.439-1.41-3.948-2.56-7.613-3.525-11.227C3.12 408.252 2.5 395.812 2.5 338V174c0-57.812.62-70.252 5.346-87.98.964-3.614 2.115-7.279 3.508-11.18 9.969-29.868 33.618-53.517 63.437-63.469 3.95-1.41 7.615-2.56 11.23-3.525C103.747 3.12 116.187 2.5 174 2.5Z"/>
    </g>
    <path d="M311 297c-10.072 0-118-57.152-118-142 0-28.904 20.455-67 63-67 35.583 0 52.478 19.474 56 23 2.522-3.526 19.417-23 55-23 42.545 0 63 38.096 63 67 0 84.848-108.928 142-119 142Z" fill="url(#b)" mask="url(#c)"/>
  </g>
</svg>
